<svg xmlns="http://www.w3.org/2000/svg" viewBox="0 0 96 96" fill="none" role="img" aria-label="MileSeal">
  <defs>
    <linearGradient id="msPeakL" x1="18" y1="8" x2="48" y2="40" gradientUnits="userSpaceOnUse">
      <stop stop-color="#FFF1E3"/>
      <stop offset="0.35" stop-color="#FFC48A"/>
      <stop offset="1" stop-color="#FC5000"/>
    </linearGradient>
    <linearGradient id="msPeakR" x1="78" y1="8" x2="48" y2="40" gradientUnits="userSpaceOnUse">
      <stop stop-color="#FFE0C2"/>
      <stop offset="0.4" stop-color="#FF9A3D"/>
      <stop offset="1" stop-color="#E04500"/>
    </linearGradient>
    <linearGradient id="msLeft" x1="12" y1="28" x2="40" y2="88" gradientUnits="userSpaceOnUse">
      <stop stop-color="#FFAE66"/>
      <stop offset="0.55" stop-color="#FC5000"/>
      <stop offset="1" stop-color="#B83200"/>
    </linearGradient>
    <linearGradient id="msRight" x1="84" y1="28" x2="56" y2="88" gradientUnits="userSpaceOnUse">
      <stop stop-color="#FC5000"/>
      <stop offset="0.5" stop-color="#D63A00"/>
      <stop offset="1" stop-color="#8F2400"/>
    </linearGradient>
    <linearGradient id="msCenter" x1="48" y1="30" x2="48" y2="72" gradientUnits="userSpaceOnUse">
      <stop stop-color="#FFD7B0"/>
      <stop offset="0.45" stop-color="#FF8A3D"/>
      <stop offset="1" stop-color="#FC5000"/>
    </linearGradient>
    <linearGradient id="msBridge" x1="24" y1="20" x2="72" y2="36" gradientUnits="userSpaceOnUse">
      <stop stop-color="#FFE8D2"/>
      <stop offset="1" stop-color="#FF9A3D"/>
    </linearGradient>
  </defs>
  <!-- Faceted seal / folded M — sharp peaks + fang legs -->
  <path d="M16 30 L30 10 L48 34 L30 28 Z" fill="url(#msPeakL)"/>
  <path d="M80 30 L66 10 L48 34 L66 28 Z" fill="url(#msPeakR)"/>
  <path d="M30 10 L48 34 L66 10 L66 28 L48 46 L30 28 Z" fill="url(#msBridge)" opacity="0.95"/>
  <path d="M16 30 L30 28 L30 52 L24 82 L16 70 Z" fill="url(#msLeft)"/>
  <path d="M80 30 L66 28 L66 52 L72 82 L80 70 Z" fill="url(#msRight)"/>
  <path d="M30 28 L48 46 L66 28 L66 52 L48 70 L30 52 Z" fill="url(#msCenter)"/>
  <path d="M30 10 L48 34 L30 28 Z" fill="#FFF8F0" opacity="0.9"/>
  <path d="M66 10 L48 34 L66 28 Z" fill="#FFB070" opacity="0.75"/>
  <path d="M30 52 L48 70 L48 46 Z" fill="#FF8A3D" opacity="0.55"/>
  <path d="M66 52 L48 70 L48 46 Z" fill="#D63A00" opacity="0.45"/>
</svg>
